<?xml version="1.0" encoding="utf-8"?>
<!-- Generator: Adobe Illustrator 25.0.1, SVG Export Plug-In . SVG Version: 6.00 Build 0)  -->
<svg version="1.1" id="Layer_1" xmlns="http://www.w3.org/2000/svg" xmlns:xlink="http://www.w3.org/1999/xlink" x="0px" y="0px"
	 viewBox="0 0 90.2 89.8" style="enable-background:new 0 0 90.2 89.8;" xml:space="preserve">
<style type="text/css">
	.st0{fill:#E74C3C;}
</style>
<path class="st0" d="M11.8,0h66.6c6.5,0,11.8,5.3,11.8,11.8v0c0,6.5-5.3,11.8-11.8,11.8H11.8C5.3,23.6,0,18.3,0,11.8v0
	C0,5.3,5.3,0,11.8,0z"/>
<path class="st0" d="M30.7,33.1h28.7c6.5,0,11.8,5.3,11.8,11.8v0c0,6.5-5.3,11.8-11.8,11.8H30.7c-6.5,0-11.8-5.3-11.8-11.8v0
	C18.9,38.4,24.2,33.1,30.7,33.1z"/>
<path class="st0" d="M11.8,66.2h66.6c6.5,0,11.8,5.3,11.8,11.8v0c0,6.5-5.3,11.8-11.8,11.8H11.8C5.3,89.8,0,84.5,0,78v0
	C0,71.5,5.3,66.2,11.8,66.2z"/>
</svg>
