<svg id="Layer_1" data-name="Layer 1" xmlns="http://www.w3.org/2000/svg" viewBox="0 0 249.82019 158.78259"><defs><style>.cls-1{fill:#cf3e3d;}.cls-2{fill:none;}</style></defs><title>logo2</title><path class="cls-1" d="M269.83413,68.14708a3.18176,3.18176,0,0,0-3.31391-2.76666H205.986A1.54956,1.54956,0,0,0,204.43648,66.93v70.88989a2.20973,2.20973,0,0,1-2.34784,2.03882H146.52346L69.53734,139.86a1.54956,1.54956,0,0,1-1.54959-1.54956V66.93a1.54956,1.54956,0,0,0-1.54956-1.54956H23.84328a3.18176,3.18176,0,0,0-3.314,2.76666q-.25287,3.49219-.25769,7.04108c0,61.00159,55.92419,110.45312,124.91015,110.45312s124.91-49.45153,124.91-110.45312Q270.09182,71.63948,269.83413,68.14708Z" transform="translate(-20.27163 -26.85869)"/><path class="cls-1" d="M169.73017,68.06191V97.30034c0,1.55-.69187,2.80648-1.54534,2.80648H149.75746c-.85347,0-1.54534,1.25651-1.54534,2.80648V142.699c0,1.55.69187,2.80648,1.54534,2.80648H234.1746c.85347,0,1.54534-1.2565,1.54534-2.80648v-74.637c0-1.55-.69187-2.80648-1.54534-2.80648H171.2755C170.422,65.25543,169.73017,66.51193,169.73017,68.06191Z" transform="translate(-20.27163 -26.85869)"/><path class="cls-2" d="M91.82375,71.654a1.757,1.757,0,0,0,.33008-.07617.386.386,0,0,0,.17773-.12061.29355.29355,0,0,0,.05664-.17773v-5.916h1.86621a8.03163,8.03163,0,0,0,2.62207-.38086A5.20991,5.20991,0,0,0,98.73,63.90349,4.69244,4.69244,0,0,0,99.89113,62.215a5.81169,5.81169,0,0,0,.40625-2.22168,5.24705,5.24705,0,0,0-.26074-1.69482,4.22233,4.22233,0,0,0-.74219-1.352,4.29189,4.29189,0,0,0-1.17383-.98389,4.75658,4.75658,0,0,0-1.35937-.5459,9.60237,9.60237,0,0,0-1.1543-.19043q-.48925-.04467-1.02246-.04443h-3.5166a.92422.92422,0,0,0-.59668.21582.88065.88065,0,0,0-.2666.72363V71.27947a.31.31,0,0,0,.05078.17773.34022.34022,0,0,0,.17773.12061,1.91571,1.91571,0,0,0,.33594.07617,4.39666,4.39666,0,0,0,1.05469,0Zm.56445-14.66944h2.01856a7.757,7.757,0,0,1,1.14941.08887,3.12642,3.12642,0,0,1,1.14258.41895,2.60739,2.60739,0,0,1,.92578,1.00293,3.40572,3.40572,0,0,1,.375,1.67578,3.96508,3.96508,0,0,1-.22852,1.36474,2.95425,2.95425,0,0,1-.67285,1.07911,3.08444,3.08444,0,0,1-1.09863.70459,4.57259,4.57259,0,0,1-1.64355.2539H92.3882Z" transform="translate(-20.27163 -26.85869)"/><path class="cls-2" d="M102.70168,100.33611a.95194.95194,0,0,0-.21289-.05616,2.37255,2.37255,0,0,0-.65137,0,.97763.97763,0,0,0-.21387.05616.22167.22167,0,0,0-.1455.21338v8.97314a6.04456,6.04456,0,0,1-.26368,1.88135,3.62318,3.62318,0,0,1-.75879,1.3418,3.037,3.037,0,0,1-1.207.80273,4.64529,4.64529,0,0,1-1.623.26416,4.45718,4.45718,0,0,1-1.61133-.2749,3.1673,3.1673,0,0,1-1.21289-.82032,3.62833,3.62833,0,0,1-.76367-1.36425,6.24588,6.24588,0,0,1-.26368-1.90918v-8.89453a.245.245,0,0,0-.0332-.12354.23633.23633,0,0,0-.11328-.08984.95194.95194,0,0,0-.21289-.05616,2.00068,2.00068,0,0,0-.32617-.02246,1.86827,1.86827,0,0,0-.3252.02246,1.12633,1.12633,0,0,0-.208.05616.21706.21706,0,0,0-.15136.21338v9.11914a6.59268,6.59268,0,0,0,.376,2.31933,4.64956,4.64956,0,0,0,1.05567,1.68457,4.446,4.446,0,0,0,1.61719,1.02735,5.84991,5.84991,0,0,0,2.0498.34814,6.35568,6.35568,0,0,0,2.21289-.36474,4.53144,4.53144,0,0,0,1.68359-1.07276,4.76037,4.76037,0,0,0,1.07325-1.74072,6.86477,6.86477,0,0,0,.376-2.3584v-8.96191a.2451.2451,0,0,0-.0332-.12354A.23633.23633,0,0,0,102.70168,100.33611Z" transform="translate(-20.27163 -26.85869)"/><path class="cls-2" d="M109.0757,71.53337a5.10517,5.10517,0,0,0,1.77735-.9458,4.42019,4.42019,0,0,0,1.18164-1.52978,4.77059,4.77059,0,0,0,.4248-2.05664,4.10635,4.10635,0,0,0-.32324-1.69483,4.17583,4.17583,0,0,0-.85156-1.24414,5.72363,5.72363,0,0,0-1.19922-.91406q-.67236-.38745-1.3711-.71094-.69873-.32373-1.37109-.64111a7.4855,7.4855,0,0,1-1.19922-.69824,3.2448,3.2448,0,0,1-.84473-.876,2.138,2.138,0,0,1-.31738-1.18066,2.39662,2.39662,0,0,1,.165-.88868,1.94774,1.94774,0,0,1,.49512-.72363,2.43853,2.43853,0,0,1,.83789-.48877,3.50616,3.50616,0,0,1,1.19336-.18408,4.444,4.444,0,0,1,1.32617.18408,6.40251,6.40251,0,0,1,1.02246.40625q.43214.22193.72949.3999a1.02586,1.02586,0,0,0,.43848.17774.24511.24511,0,0,0,.15918-.05713.36813.36813,0,0,0,.10742-.17774,1.48956,1.48956,0,0,0,.05664-.29834,3.59994,3.59994,0,0,0,.01953-.40625c0-.16064-.0039-.292-.01269-.39355a1.90481,1.90481,0,0,0-.03809-.26025.70435.70435,0,0,0-.06347-.17774.95819.95819,0,0,0-.15918-.19043,2.23606,2.23606,0,0,0-.501-.31738,5.79083,5.79083,0,0,0-.87012-.35547,7.41084,7.41084,0,0,0-1.041-.25391,6.43657,6.43657,0,0,0-1.09766-.09521,6.666,6.666,0,0,0-1.98633.28564,4.65713,4.65713,0,0,0-1.58789.83155,3.792,3.792,0,0,0-1.041,1.35205,4.31618,4.31618,0,0,0-.374,1.83447,4.176,4.176,0,0,0,.32324,1.72022,4.33968,4.33968,0,0,0,.84473,1.25048,5.746,5.746,0,0,0,1.18067.92676,14.884,14.884,0,0,0,1.35839.71729q.69873.32373,1.36426.63476a7.32182,7.32182,0,0,1,1.1875.68555,3.20527,3.20527,0,0,1,.83789.86963,2.16225,2.16225,0,0,1,.31738,1.19336,2.78648,2.78648,0,0,1-.22851,1.15527,2.33521,2.33521,0,0,1-.65332.85693,3.07706,3.07706,0,0,1-1.01563.53956,4.23017,4.23017,0,0,1-1.30175.19042,5.61952,5.61952,0,0,1-1.65723-.22216,8.16228,8.16228,0,0,1-1.22461-.47608,7.96624,7.96624,0,0,1-.832-.46972,1.03134,1.03134,0,0,0-.501-.21582.34551.34551,0,0,0-.17773.04443.33325.33325,0,0,0-.127.15869,1.10349,1.10349,0,0,0-.07617.29834,3.54813,3.54813,0,0,0-.02539.46338,2.30813,2.30813,0,0,0,.06934.62842.933.933,0,0,0,.2168.3872,2.46185,2.46185,0,0,0,.51953.36817,6.02954,6.02954,0,0,0,.92773.41894,8.3903,8.3903,0,0,0,1.25586.34278,7.87537,7.87537,0,0,0,1.53027.13965A7.38892,7.38892,0,0,0,109.0757,71.53337Z" transform="translate(-20.27163 -26.85869)"/><path class="cls-2" d="M97.86232,78.57488a.37943.37943,0,0,0-.26367-.24707,1.41484,1.41484,0,0,0-.25781-.05078,3.38131,3.38131,0,0,0-.35352-.01661,3.246,3.246,0,0,0-.34277.01661,1.41,1.41,0,0,0-.25879.05078.45078.45078,0,0,0-.17383.0957.39461.39461,0,0,0-.10156.15137l-5.08691,13.8247a.67.67,0,0,0-.06153.26954.202.202,0,0,0,.07813.15722.5015.5015,0,0,0,.23047.07861,2.82835,2.82835,0,0,0,.39257.02247,2.291,2.291,0,0,0,.3545-.02247.79483.79483,0,0,0,.21875-.06152.365.365,0,0,0,.124-.0957.38683.38683,0,0,0,.06641-.13477l1.33691-3.85205h6.37891l1.39257,3.87451a.75227.75227,0,0,0,.07325.13477.269.269,0,0,0,.11718.08984.85063.85063,0,0,0,.21973.05078,3.43433,3.43433,0,0,0,.376.01661,3.784,3.784,0,0,0,.38769-.01661.45762.45762,0,0,0,.22461-.07324.20789.20789,0,0,0,.07813-.16308.68038.68038,0,0,0-.06153-.27491ZM94.168,87.6154l2.74023-7.8164H96.919l2.8086,7.8164Z" transform="translate(-20.27163 -26.85869)"/><path class="cls-2" d="M88.46779,79.48992a3.23574,3.23574,0,0,0-.5332-.38184,5.442,5.442,0,0,0-.95508-.44922,8.84172,8.84172,0,0,0-1.26269-.35351,7.71575,7.71575,0,0,0-4.34082.39843A6.417,6.417,0,0,0,79.15822,80.237a6.89617,6.89617,0,0,0-1.4375,2.38671,9.58152,9.58152,0,0,0-.04,6.05274,6.60229,6.60229,0,0,0,1.36524,2.31348,6.04825,6.04825,0,0,0,2.18945,1.50488,7.69,7.69,0,0,0,2.94824.53369,8.12464,8.12464,0,0,0,1.07227-.07275,9.08577,9.08577,0,0,0,1.084-.21387,8.0749,8.0749,0,0,0,1.04395-.34766,7.00215,7.00215,0,0,0,.80859-.38183.86959.86959,0,0,0,.3877-.36524,1.12862,1.12862,0,0,0,.085-.46045V85.78484a.93228.93228,0,0,0-.05664-.34278.531.531,0,0,0-.15137-.21875.59211.59211,0,0,0-.208-.1123.74667.74667,0,0,0-.21289-.03369H83.58889a.30683.30683,0,0,0-.15821.03955.31088.31088,0,0,0-.11133.1123.57249.57249,0,0,0-.06835.19043,1.52669,1.52669,0,0,0-.02149.27539.90944.90944,0,0,0,.08984.44922.29055.29055,0,0,0,.26954.15723H87.294V91.007a5.7384,5.7384,0,0,1-1.49316.584,6.725,6.725,0,0,1-1.57227.19092,5.80917,5.80917,0,0,1-2.21777-.41553,4.87317,4.87317,0,0,1-1.752-1.20752,5.61647,5.61647,0,0,1-1.15137-1.94238,7.68849,7.68849,0,0,1-.415-2.62256,8.00588,8.00588,0,0,1,.36426-2.45361,5.77256,5.77256,0,0,1,1.06152-1.97119,4.94863,4.94863,0,0,1,1.707-1.30811,5.32848,5.32848,0,0,1,2.30274-.47754,6.00653,6.00653,0,0,1,1.74609.22461,7.795,7.795,0,0,1,1.252.48828,6.33062,6.33062,0,0,1,.82519.48877.96541.96541,0,0,0,.44434.22461.21649.21649,0,0,0,.1289-.04492.32357.32357,0,0,0,.10059-.1294.82612.82612,0,0,0,.06152-.20752,1.45,1.45,0,0,0,.02344-.26953,1.18622,1.18622,0,0,0-.05078-.39306A.80634.80634,0,0,0,88.46779,79.48992Z" transform="translate(-20.27163 -26.85869)"/><path class="cls-2" d="M88.04641,100.33611a.97763.97763,0,0,0-.21387-.05616,1.99628,1.99628,0,0,0-.3252-.02246,1.97491,1.97491,0,0,0-.33105.02246.97632.97632,0,0,0-.208.05616.22893.22893,0,0,0-.1123.08984.23553.23553,0,0,0-.03321.12354v6.08691H79.56691v-6.08691a.23562.23562,0,0,0-.0332-.12354.22893.22893,0,0,0-.1123-.08984.97665.97665,0,0,0-.208-.05616,1.975,1.975,0,0,0-.33106-.02246,1.99615,1.99615,0,0,0-.32519.02246.97732.97732,0,0,0-.21387.05616.22893.22893,0,0,0-.1123.08984.23553.23553,0,0,0-.03321.12354v14.083a.23553.23553,0,0,0,.03321.12354.22893.22893,0,0,0,.1123.08984.97732.97732,0,0,0,.21387.05616,1.99615,1.99615,0,0,0,.32519.02246,1.975,1.975,0,0,0,.33106-.02246.97665.97665,0,0,0,.208-.05616.22893.22893,0,0,0,.1123-.08984.23562.23562,0,0,0,.0332-.12354v-6.772h7.25586v6.772a.23553.23553,0,0,0,.03321.12354.22893.22893,0,0,0,.1123.08984.97632.97632,0,0,0,.208.05616,1.97491,1.97491,0,0,0,.33105.02246,1.99628,1.99628,0,0,0,.3252-.02246.97763.97763,0,0,0,.21387-.05616.22893.22893,0,0,0,.1123-.08984.23562.23562,0,0,0,.0332-.12354v-14.083a.23562.23562,0,0,0-.0332-.12354A.22893.22893,0,0,0,88.04641,100.33611Z" transform="translate(-20.27163 -26.85869)"/><path class="cls-2" d="M77.78176,70.94939a6.02954,6.02954,0,0,0,.92773.41894,8.3903,8.3903,0,0,0,1.25586.34278,7.87537,7.87537,0,0,0,1.53027.13965,7.38892,7.38892,0,0,0,2.20215-.31739,5.10517,5.10517,0,0,0,1.77735-.9458,4.42019,4.42019,0,0,0,1.18164-1.52978,4.77059,4.77059,0,0,0,.4248-2.05664,4.10635,4.10635,0,0,0-.32324-1.69483,4.17583,4.17583,0,0,0-.85156-1.24414,5.72363,5.72363,0,0,0-1.19922-.91406q-.67236-.38745-1.3711-.71094-.69873-.32373-1.37109-.64111a7.4855,7.4855,0,0,1-1.19922-.69824,3.24461,3.24461,0,0,1-.84472-.876,2.13793,2.13793,0,0,1-.31739-1.18066,2.39662,2.39662,0,0,1,.165-.88868,1.94774,1.94774,0,0,1,.49512-.72363,2.43863,2.43863,0,0,1,.83789-.48877,3.50616,3.50616,0,0,1,1.19336-.18408,4.444,4.444,0,0,1,1.32617.18408,6.40251,6.40251,0,0,1,1.02246.40625q.43213.22193.72949.3999a1.02586,1.02586,0,0,0,.43848.17774.24511.24511,0,0,0,.15918-.05713.36813.36813,0,0,0,.10742-.17774,1.48956,1.48956,0,0,0,.05664-.29834,3.59994,3.59994,0,0,0,.01953-.40625c0-.16064-.0039-.292-.01269-.39355a1.90481,1.90481,0,0,0-.03809-.26025.70435.70435,0,0,0-.06347-.17774.95784.95784,0,0,0-.15918-.19043,2.23606,2.23606,0,0,0-.501-.31738,5.79083,5.79083,0,0,0-.87012-.35547,7.41084,7.41084,0,0,0-1.041-.25391,6.43657,6.43657,0,0,0-1.09766-.09521,6.666,6.666,0,0,0-1.98633.28564,4.65713,4.65713,0,0,0-1.58789.83155,3.792,3.792,0,0,0-1.041,1.35205,4.31618,4.31618,0,0,0-.374,1.83447,4.176,4.176,0,0,0,.32324,1.72022,4.33968,4.33968,0,0,0,.84473,1.25048,5.746,5.746,0,0,0,1.18067.92676,14.88528,14.88528,0,0,0,1.35839.71729q.69873.32373,1.36426.63476a7.32182,7.32182,0,0,1,1.1875.68555,3.20527,3.20527,0,0,1,.83789.86963,2.16226,2.16226,0,0,1,.31739,1.19336,2.78648,2.78648,0,0,1-.22852,1.15527,2.33521,2.33521,0,0,1-.65332.85693,3.07706,3.07706,0,0,1-1.01563.53956,4.23017,4.23017,0,0,1-1.30175.19042A5.61952,5.61952,0,0,1,79.94,69.76238a8.16228,8.16228,0,0,1-1.22461-.47608,7.96624,7.96624,0,0,1-.832-.46972,1.03134,1.03134,0,0,0-.501-.21582.34551.34551,0,0,0-.17773.04443.33318.33318,0,0,0-.127.15869,1.10309,1.10309,0,0,0-.07618.29834,3.54813,3.54813,0,0,0-.02539.46338,2.30813,2.30813,0,0,0,.06934.62842.933.933,0,0,0,.2168.3872A2.46213,2.46213,0,0,0,77.78176,70.94939Z" transform="translate(-20.27163 -26.85869)"/><path class="cls-2" d="M140.9092,78.37859a.67907.67907,0,0,0-.21289-.05664,2.68149,2.68149,0,0,0-.31446-.0166,2.76577,2.76577,0,0,0-.332.0166.661.661,0,0,0-.207.05664.26618.26618,0,0,0-.11328.09521.24512.24512,0,0,0-.0332.12354V89.01921q0,1.02174.01172,1.96533h-.01172q-.30323-.57274-.61231-1.13427-.30908-.56177-.623-1.13965-.31494-.57861-.64551-1.17969-.33105-.60059-.70215-1.25195l-3.919-6.95166a5.45272,5.45272,0,0,0-.30957-.49951,1.31907,1.31907,0,0,0-.28613-.30371.93209.93209,0,0,0-.32617-.15137,1.89437,1.89437,0,0,0-.44922-.04492h-.56055a.72509.72509,0,0,0-.416.15136.63843.63843,0,0,0-.21289.55616V92.63542a.23562.23562,0,0,0,.0332.12354.22891.22891,0,0,0,.11231.08984.97686.97686,0,0,0,.21386.05615,1.995,1.995,0,0,0,.3252.02247,1.97362,1.97362,0,0,0,.33105-.02247.97578.97578,0,0,0,.208-.05615.229.229,0,0,0,.11231-.08984.23562.23562,0,0,0,.0332-.12354V81.54558q0-.85986-.01074-1.6792h.01074q.34863.66285.73633,1.36475.38671.70166.76953,1.36425l5.12109,9.07422a6.361,6.361,0,0,0,.38672.60645,2.01387,2.01387,0,0,0,.34863.376,1.06421,1.06421,0,0,0,.35938.19677,1.398,1.398,0,0,0,.40918.05615h.28125a.7962.7962,0,0,0,.21875-.03369.54915.54915,0,0,0,.21386-.11767.65125.65125,0,0,0,.15723-.21924.81139.81139,0,0,0,.06152-.33691V78.59734a.20973.20973,0,0,0-.03906-.12354A.30258.30258,0,0,0,140.9092,78.37859Z" transform="translate(-20.27163 -26.85869)"/><path class="cls-2" d="M155.58058,79.48992a3.23574,3.23574,0,0,0-.5332-.38184,5.442,5.442,0,0,0-.95508-.44922,8.84172,8.84172,0,0,0-1.26269-.35351,7.71575,7.71575,0,0,0-4.34082.39843A6.417,6.417,0,0,0,146.271,80.237a6.89617,6.89617,0,0,0-1.4375,2.38671,9.58143,9.58143,0,0,0-.04,6.05274,6.60227,6.60227,0,0,0,1.36523,2.31348,6.04842,6.04842,0,0,0,2.18945,1.50488,7.6901,7.6901,0,0,0,2.94825.53369,8.12449,8.12449,0,0,0,1.07226-.07275,9.08632,9.08632,0,0,0,1.084-.21387,8.07527,8.07527,0,0,0,1.04394-.34766,7.00215,7.00215,0,0,0,.80859-.38183.86954.86954,0,0,0,.3877-.36524,1.12862,1.12862,0,0,0,.085-.46045V85.78484a.93228.93228,0,0,0-.05664-.34278.531.531,0,0,0-.15137-.21875.592.592,0,0,0-.208-.1123.74667.74667,0,0,0-.21289-.03369h-4.44726a.3068.3068,0,0,0-.1582.03955.31072.31072,0,0,0-.11133.1123.57227.57227,0,0,0-.06836.19043,1.52669,1.52669,0,0,0-.02149.27539.90932.90932,0,0,0,.08985.44922.29053.29053,0,0,0,.26953.15723h3.70508V91.007a5.73861,5.73861,0,0,1-1.49317.584,6.725,6.725,0,0,1-1.57226.19092,5.80923,5.80923,0,0,1-2.21778-.41553,4.87317,4.87317,0,0,1-1.75195-1.20752,5.61678,5.61678,0,0,1-1.15137-1.94238,7.68849,7.68849,0,0,1-.415-2.62256,8.00588,8.00588,0,0,1,.36426-2.45361,5.77258,5.77258,0,0,1,1.06153-1.97119,4.94844,4.94844,0,0,1,1.707-1.30811,5.3284,5.3284,0,0,1,2.30273-.47754,6.00653,6.00653,0,0,1,1.74609.22461,7.795,7.795,0,0,1,1.252.48828,6.33062,6.33062,0,0,1,.82519.48877.96546.96546,0,0,0,.44434.22461.21654.21654,0,0,0,.12891-.04492.32364.32364,0,0,0,.10058-.1294.82571.82571,0,0,0,.06152-.20752,1.45,1.45,0,0,0,.02344-.26953,1.18622,1.18622,0,0,0-.05078-.39306A.80634.80634,0,0,0,155.58058,79.48992Z" transform="translate(-20.27163 -26.85869)"/><path class="cls-2" d="M124.60891,70.00359a.445.445,0,0,0-.14551-.15869.34977.34977,0,0,0-.18457-.05078h-6.5127V63.91619h5.50977a.3782.3782,0,0,0,.18359-.04444.36287.36287,0,0,0,.14063-.146.811.811,0,0,0,.082-.26661,2.67313,2.67313,0,0,0,.02539-.39355,3.06005,3.06005,0,0,0-.02539-.419.82733.82733,0,0,0-.082-.27929.471.471,0,0,0-.14063-.15869.31452.31452,0,0,0-.18359-.05713h-5.50977v-5.1543H124.19a.344.344,0,0,0,.18359-.05078.35714.35714,0,0,0,.13379-.15869,1.15976,1.15976,0,0,0,.083-.2793,2.28441,2.28441,0,0,0,.03125-.3999,2.45694,2.45694,0,0,0-.03125-.42529,1.28764,1.28764,0,0,0-.083-.28565.35291.35291,0,0,0-.13379-.165.344.344,0,0,0-.18359-.05078H116.395a.90214.90214,0,0,0-.55274.19678.818.818,0,0,0-.25976.69189V70.72087a.818.818,0,0,0,.25976.6919.90213.90213,0,0,0,.55274.19677h7.88379a.34986.34986,0,0,0,.18457-.05078.43344.43344,0,0,0,.14551-.165.84122.84122,0,0,0,.08886-.28564,2.81007,2.81007,0,0,0,.02539-.3999,3.02308,3.02308,0,0,0-.02539-.4253A.774.774,0,0,0,124.60891,70.00359Z" transform="translate(-20.27163 -26.85869)"/><path class="cls-2" d="M120.55861,78.47917a.50568.50568,0,0,0-.20215-.11767.74667.74667,0,0,0-.21289-.03369h-.82031a1.332,1.332,0,0,0-.35351.04492.84468.84468,0,0,0-.30372.15722,1.386,1.386,0,0,0-.26953.29786,2.44633,2.44633,0,0,0-.24121.45459l-4.998,11.5h-.05567l-4.7959-11.54493a2.315,2.315,0,0,0-.20117-.38183,1.13034,1.13034,0,0,0-.27539-.28662,1.2248,1.2248,0,0,0-.377-.17969,1.78435,1.78435,0,0,0-.49414-.06152h-.74024a.72506.72506,0,0,0-.416.15136.63843.63843,0,0,0-.21289.55616V92.63542a.27442.27442,0,0,0,.02734.12354.19975.19975,0,0,0,.10742.08984.94929.94929,0,0,0,.207.05615,1.89913,1.89913,0,0,0,.32032.02247,2.06371,2.06371,0,0,0,.34277-.02247,1.08436,1.08436,0,0,0,.21289-.05615.2287.2287,0,0,0,.11816-.08984.23563.23563,0,0,0,.03321-.12354V79.52947h.01172L112.40529,92.714a.17078.17078,0,0,0,.05664.08447.38964.38964,0,0,0,.11719.06738.93857.93857,0,0,0,.18555.04492,1.92981,1.92981,0,0,0,.26953.01661,1.71211,1.71211,0,0,0,.25293-.01661,1.064,1.064,0,0,0,.18457-.04492.397.397,0,0,0,.124-.06738.27319.27319,0,0,0,.06738-.08447l5.7168-13.18457h.02149V92.63542a.23638.23638,0,0,0,.03418.12354.22893.22893,0,0,0,.1123.08984.96631.96631,0,0,0,.21289.05615,1.92178,1.92178,0,0,0,.31445.02247,1.98653,1.98653,0,0,0,.332-.02247,1.08475,1.08475,0,0,0,.21289-.05615.2287.2287,0,0,0,.11816-.08984.23647.23647,0,0,0,.03418-.12354V79.03533a.81062.81062,0,0,0-.0625-.33692A.69814.69814,0,0,0,120.55861,78.47917Z" transform="translate(-20.27163 -26.85869)"/><path class="cls-2" d="M126.24221,78.339a.97649.97649,0,0,0-.208-.05616,1.975,1.975,0,0,0-.33106-.02246,1.80788,1.80788,0,0,0-.30859.02246,1.11605,1.11605,0,0,0-.21387.05616.26642.26642,0,0,0-.123.08984.20972.20972,0,0,0-.03907.12354v14.083a.23563.23563,0,0,0,.03321.12354.22893.22893,0,0,0,.1123.08984.977.977,0,0,0,.21387.05615,1.99491,1.99491,0,0,0,.32519.02247,1.97375,1.97375,0,0,0,.33106-.02247.976.976,0,0,0,.208-.05615.22893.22893,0,0,0,.1123-.08984.23562.23562,0,0,0,.0332-.12354v-14.083a.23562.23562,0,0,0-.0332-.12354A.22893.22893,0,0,0,126.24221,78.339Z" transform="translate(-20.27163 -26.85869)"/><path class="cls-2" d="M115.28566,108.3322a3.46406,3.46406,0,0,0-.90332-.78076,3.37808,3.37808,0,0,0-1.10156-.4209,3.23109,3.23109,0,0,0,.83691-.55029,3.12908,3.12908,0,0,0,.58985-.73,3.31549,3.31549,0,0,0,.35351-.876,4.03726,4.03726,0,0,0,.11817-.98828,4.2957,4.2957,0,0,0-.25293-1.51074,2.96988,2.96988,0,0,0-.76367-1.15625,3.4404,3.4404,0,0,0-1.29688-.73584,6.73615,6.73615,0,0,0-2.05566-.2583H107.689a.72509.72509,0,0,0-.416.15136.63844.63844,0,0,0-.21289.55616v13.11718a.63843.63843,0,0,0,.21289.55616.72509.72509,0,0,0,.416.15136h3.76172a6.83428,6.83428,0,0,0,1.38086-.12353,4.93662,4.93662,0,0,0,1.10645-.36475,4.04361,4.04361,0,0,0,.915-.58984,3.49308,3.49308,0,0,0,.68554-.79736,3.76158,3.76158,0,0,0,.43262-.99952,4.48727,4.48727,0,0,0,.15137-1.19043,4.00239,4.00239,0,0,0-.22461-1.36425A3.64427,3.64427,0,0,0,115.28566,108.3322Zm-6.85644-6.7832h2.26953a4.88655,4.88655,0,0,1,1.4707.17969,2.26924,2.26924,0,0,1,.89258.51123,1.959,1.959,0,0,1,.5.79687,3.24839,3.24839,0,0,1,.15723,1.03906,3.30981,3.30981,0,0,1-.15723,1.0166,2.4006,2.4006,0,0,1-.48242.85889,2.30206,2.30206,0,0,1-.832.58936,3.35763,3.35763,0,0,1-1.32422.21924h-2.49414Zm5.99219,10.53955a2.46555,2.46555,0,0,1-.65137.85351,2.81313,2.81313,0,0,1-.94336.51661,3.95825,3.95825,0,0,1-1.22949.17431h-3.168V107.9616h2.61719a5.834,5.834,0,0,1,1.61718.19091,2.99952,2.99952,0,0,1,1.09473.56153,2.37185,2.37185,0,0,1,.67383.9209,3.26893,3.26893,0,0,1,.23047,1.269A2.74007,2.74007,0,0,1,114.42141,112.08855Z" transform="translate(-20.27163 -26.85869)"/><path class="cls-1" d="M113.75832,108.714a2.99952,2.99952,0,0,0-1.09473-.56153,5.834,5.834,0,0,0-1.61718-.19091h-2.61719V113.633h3.168a3.95825,3.95825,0,0,0,1.22949-.17431,2.81313,2.81313,0,0,0,.94336-.51661,2.46555,2.46555,0,0,0,.65137-.85351,2.74007,2.74007,0,0,0,.24121-1.18457,3.26893,3.26893,0,0,0-.23047-1.269A2.37185,2.37185,0,0,0,113.75832,108.714Z" transform="translate(-20.27163 -26.85869)"/><path class="cls-1" d="M112.24758,106.5407a2.30206,2.30206,0,0,0,.832-.58936,2.4006,2.4006,0,0,0,.48242-.85889,3.30981,3.30981,0,0,0,.15723-1.0166,3.24839,3.24839,0,0,0-.15723-1.03906,1.959,1.959,0,0,0-.5-.79687,2.26924,2.26924,0,0,0-.89258-.51123,4.88655,4.88655,0,0,0-1.4707-.17969h-2.26953v5.21094h2.49414A3.35763,3.35763,0,0,0,112.24758,106.5407Z" transform="translate(-20.27163 -26.85869)"/><polygon class="cls-1" points="76.637 52.94 73.896 60.757 79.456 60.757 76.647 52.94 76.637 52.94"/><path class="cls-1" d="M202.08864,26.85869H173.48433a2.2097,2.2097,0,0,0-2.34778,2.03876v8.586a2.20975,2.20975,0,0,1-2.34784,2.03875H105.86684a2.2097,2.2097,0,0,1-2.34778-2.03875v-8.586a2.20972,2.20972,0,0,0-2.34784-2.03876H72.56691a2.20972,2.20972,0,0,0-2.34784,2.03876V135.81987a2.20973,2.20973,0,0,0,2.34784,2.03882h73.95655V101.03826c0-1.54993.69183-2.80646,1.54528-2.80646h18.42743c.85346,0,1.54529-1.25653,1.54529-2.80646V66.18688c0-1.55.6919-2.80646,1.54535-2.80646h34.84967v-34.483A2.20972,2.20972,0,0,0,202.08864,26.85869ZM76.97609,69.5656a3.54813,3.54813,0,0,1,.02539-.46338,1.10309,1.10309,0,0,1,.07618-.29834.33318.33318,0,0,1,.127-.15869.34551.34551,0,0,1,.17773-.04443,1.03134,1.03134,0,0,1,.501.21582,7.96624,7.96624,0,0,0,.832.46972,8.16228,8.16228,0,0,0,1.22461.47608,5.61952,5.61952,0,0,0,1.65723.22216,4.23017,4.23017,0,0,0,1.30175-.19042,3.07706,3.07706,0,0,0,1.01563-.53956,2.33521,2.33521,0,0,0,.65332-.85693,2.78648,2.78648,0,0,0,.22852-1.15527A2.16226,2.16226,0,0,0,84.479,66.049a3.20527,3.20527,0,0,0-.83789-.86963,7.32182,7.32182,0,0,0-1.1875-.68555q-.665-.31128-1.36426-.63476a14.88528,14.88528,0,0,1-1.35839-.71729,5.746,5.746,0,0,1-1.18067-.92676,4.33968,4.33968,0,0,1-.84473-1.25048,4.176,4.176,0,0,1-.32324-1.72022,4.31618,4.31618,0,0,1,.374-1.83447,3.792,3.792,0,0,1,1.041-1.35205,4.65713,4.65713,0,0,1,1.58789-.83155,6.666,6.666,0,0,1,1.98633-.28564,6.43657,6.43657,0,0,1,1.09766.09521,7.41084,7.41084,0,0,1,1.041.25391,5.79083,5.79083,0,0,1,.87012.35547,2.23606,2.23606,0,0,1,.501.31738.95784.95784,0,0,1,.15918.19043.70435.70435,0,0,1,.06347.17774,1.90481,1.90481,0,0,1,.03809.26025c.00879.10156.01269.23291.01269.39355a3.59994,3.59994,0,0,1-.01953.40625,1.48956,1.48956,0,0,1-.05664.29834.36813.36813,0,0,1-.10742.17774.24511.24511,0,0,1-.15918.05713,1.02586,1.02586,0,0,1-.43848-.17774q-.29736-.178-.72949-.3999a6.40251,6.40251,0,0,0-1.02246-.40625,4.444,4.444,0,0,0-1.32617-.18408,3.50616,3.50616,0,0,0-1.19336.18408,2.43863,2.43863,0,0,0-.83789.48877,1.94774,1.94774,0,0,0-.49512.72363,2.39662,2.39662,0,0,0-.165.88868,2.13793,2.13793,0,0,0,.31739,1.18066,3.24461,3.24461,0,0,0,.84472.876,7.4855,7.4855,0,0,0,1.19922.69824q.67236.31713,1.37109.64111.69873.32373,1.3711.71094a5.72363,5.72363,0,0,1,1.19922.91406,4.17583,4.17583,0,0,1,.85156,1.24414,4.10635,4.10635,0,0,1,.32324,1.69483,4.77059,4.77059,0,0,1-.4248,2.05664,4.42019,4.42019,0,0,1-1.18164,1.52978,5.10517,5.10517,0,0,1-1.77735.9458,7.38892,7.38892,0,0,1-2.20215.31739,7.87537,7.87537,0,0,1-1.53027-.13965,8.3903,8.3903,0,0,1-1.25586-.34278,6.02954,6.02954,0,0,1-.92773-.41894,2.46213,2.46213,0,0,1-.51953-.36817.933.933,0,0,1-.2168-.3872A2.30813,2.30813,0,0,1,76.97609,69.5656Zm11.21582,45.06689a.23562.23562,0,0,1-.0332.12354.22893.22893,0,0,1-.1123.08984.97763.97763,0,0,1-.21387.05616,1.99628,1.99628,0,0,1-.3252.02246,1.97491,1.97491,0,0,1-.33105-.02246.97632.97632,0,0,1-.208-.05616.22893.22893,0,0,1-.1123-.08984.23553.23553,0,0,1-.03321-.12354v-6.772H79.56691v6.772a.23562.23562,0,0,1-.0332.12354.22893.22893,0,0,1-.1123.08984.97665.97665,0,0,1-.208.05616,1.975,1.975,0,0,1-.33106.02246,1.99615,1.99615,0,0,1-.32519-.02246.97732.97732,0,0,1-.21387-.05616.22893.22893,0,0,1-.1123-.08984.23553.23553,0,0,1-.03321-.12354v-14.083a.23553.23553,0,0,1,.03321-.12354.22893.22893,0,0,1,.1123-.08984.97732.97732,0,0,1,.21387-.05616,1.99615,1.99615,0,0,1,.32519-.02246,1.975,1.975,0,0,1,.33106.02246.97665.97665,0,0,1,.208.05616.22893.22893,0,0,1,.1123.08984.23562.23562,0,0,1,.0332.12354v6.08691h7.25586v-6.08691a.23553.23553,0,0,1,.03321-.12354.22893.22893,0,0,1,.1123-.08984.97632.97632,0,0,1,.208-.05616,1.97491,1.97491,0,0,1,.33105-.02246,1.99628,1.99628,0,0,1,.3252.02246.97763.97763,0,0,1,.21387.05616.22893.22893,0,0,1,.1123.08984.23562.23562,0,0,1,.0332.12354Zm.49463-34.20459a.82612.82612,0,0,1-.06152.20752.32357.32357,0,0,1-.10059.1294.21649.21649,0,0,1-.1289.04492.96541.96541,0,0,1-.44434-.22461,6.33062,6.33062,0,0,0-.82519-.48877,7.795,7.795,0,0,0-1.252-.48828,6.00653,6.00653,0,0,0-1.74609-.22461,5.32848,5.32848,0,0,0-2.30274.47754,4.94863,4.94863,0,0,0-1.707,1.30811,5.77256,5.77256,0,0,0-1.06152,1.97119,8.00588,8.00588,0,0,0-.36426,2.45361,7.68849,7.68849,0,0,0,.415,2.62256,5.61647,5.61647,0,0,0,1.15137,1.94238,4.87317,4.87317,0,0,0,1.752,1.20752,5.80917,5.80917,0,0,0,2.21777.41553A6.725,6.725,0,0,0,85.8008,91.591a5.7384,5.7384,0,0,0,1.49316-.584V86.30144H83.58889a.29055.29055,0,0,1-.26954-.15723.90944.90944,0,0,1-.08984-.44922,1.52669,1.52669,0,0,1,.02149-.27539.57249.57249,0,0,1,.06835-.19043.31088.31088,0,0,1,.11133-.1123.30683.30683,0,0,1,.15821-.03955h4.44726a.74667.74667,0,0,1,.21289.03369.59211.59211,0,0,1,.208.1123.531.531,0,0,1,.15137.21875.93228.93228,0,0,1,.05664.34278v5.40185a1.12862,1.12862,0,0,1-.085.46045.86959.86959,0,0,1-.3877.36524,7.00215,7.00215,0,0,1-.80859.38183,8.0749,8.0749,0,0,1-1.04395.34766,9.08577,9.08577,0,0,1-1.084.21387,8.12464,8.12464,0,0,1-1.07227.07275,7.69,7.69,0,0,1-2.94824-.53369,6.04825,6.04825,0,0,1-2.18945-1.50488,6.60229,6.60229,0,0,1-1.36524-2.31348,9.58152,9.58152,0,0,1,.04-6.05274,6.89617,6.89617,0,0,1,1.4375-2.38671A6.417,6.417,0,0,1,81.376,78.70378a7.71575,7.71575,0,0,1,4.34082-.39843,8.84172,8.84172,0,0,1,1.26269.35351,5.442,5.442,0,0,1,.95508.44922,3.23574,3.23574,0,0,1,.5332.38184.80634.80634,0,0,1,.19141.27539,1.18622,1.18622,0,0,1,.05078.39306A1.45,1.45,0,0,1,88.68654,80.4279Zm1.74658-8.85009a.34022.34022,0,0,1-.17773-.12061.31.31,0,0,1-.05078-.17773V56.12126a.88065.88065,0,0,1,.2666-.72363.92422.92422,0,0,1,.59668-.21582h3.5166q.5332,0,1.02246.04443a9.60237,9.60237,0,0,1,1.1543.19043,4.75658,4.75658,0,0,1,1.35937.5459,4.29189,4.29189,0,0,1,1.17383.98389,4.22233,4.22233,0,0,1,.74219,1.352,5.24705,5.24705,0,0,1,.26074,1.69482,5.81169,5.81169,0,0,1-.40625,2.22168A4.69244,4.69244,0,0,1,98.73,63.90349a5.20991,5.20991,0,0,1-1.85352,1.0791,8.03163,8.03163,0,0,1-2.62207.38086H92.3882v5.916a.29355.29355,0,0,1-.05664.17773.386.386,0,0,1-.17773.12061,1.757,1.757,0,0,1-.33008.07617,4.39666,4.39666,0,0,1-1.05469,0A1.91571,1.91571,0,0,1,90.43312,71.57781Zm12.415,37.93359a6.86477,6.86477,0,0,1-.376,2.3584,4.76037,4.76037,0,0,1-1.07325,1.74072,4.53144,4.53144,0,0,1-1.68359,1.07276,6.35568,6.35568,0,0,1-2.21289.36474,5.84991,5.84991,0,0,1-2.0498-.34814,4.446,4.446,0,0,1-1.61719-1.02735A4.64956,4.64956,0,0,1,92.7798,111.988a6.59268,6.59268,0,0,1-.376-2.31933v-9.11914a.21706.21706,0,0,1,.15136-.21338,1.12633,1.12633,0,0,1,.208-.05616,1.86827,1.86827,0,0,1,.3252-.02246,2.00068,2.00068,0,0,1,.32617.02246.95194.95194,0,0,1,.21289.05616.23633.23633,0,0,1,.11328.08984.245.245,0,0,1,.0332.12354V109.444a6.24588,6.24588,0,0,0,.26368,1.90918,3.62833,3.62833,0,0,0,.76367,1.36425,3.1673,3.1673,0,0,0,1.21289.82032,4.45718,4.45718,0,0,0,1.61133.2749,4.64529,4.64529,0,0,0,1.623-.26416,3.037,3.037,0,0,0,1.207-.80273,3.62318,3.62318,0,0,0,.75879-1.3418,6.04456,6.04456,0,0,0,.26368-1.88135v-8.97314a.22167.22167,0,0,1,.1455-.21338.97763.97763,0,0,1,.21387-.05616,2.37255,2.37255,0,0,1,.65137,0,.95194.95194,0,0,1,.21289.05616.23633.23633,0,0,1,.11328.08984.2451.2451,0,0,1,.0332.12354Zm.08545-16.67383a.45762.45762,0,0,1-.22461.07324,3.784,3.784,0,0,1-.38769.01661,3.43433,3.43433,0,0,1-.376-.01661.85063.85063,0,0,1-.21973-.05078.269.269,0,0,1-.11718-.08984.75227.75227,0,0,1-.07325-.13477l-1.39257-3.87451H93.76369L92.42678,92.613a.38683.38683,0,0,1-.06641.13477.365.365,0,0,1-.124.0957.79483.79483,0,0,1-.21875.06152,2.291,2.291,0,0,1-.3545.02247,2.82835,2.82835,0,0,1-.39257-.02247.5015.5015,0,0,1-.23047-.07861.202.202,0,0,1-.07813-.15722.67.67,0,0,1,.06153-.26954l5.08691-13.8247a.39461.39461,0,0,1,.10156-.15137.45078.45078,0,0,1,.17383-.0957,1.41,1.41,0,0,1,.25879-.05078,3.246,3.246,0,0,1,.34277-.01661,3.38131,3.38131,0,0,1,.35352.01661,1.41484,1.41484,0,0,1,.25781.05078.37943.37943,0,0,1,.26367.24707l5.08789,13.8247a.68038.68038,0,0,1,.06153.27491A.20789.20789,0,0,1,102.93361,92.83757Zm1.15381-21.46924a6.02954,6.02954,0,0,1-.92773-.41894,2.46185,2.46185,0,0,1-.51953-.36817.933.933,0,0,1-.2168-.3872,2.30813,2.30813,0,0,1-.06934-.62842,3.54813,3.54813,0,0,1,.02539-.46338,1.10349,1.10349,0,0,1,.07617-.29834.33325.33325,0,0,1,.127-.15869.34551.34551,0,0,1,.17773-.04443,1.03134,1.03134,0,0,1,.501.21582,7.96624,7.96624,0,0,0,.832.46972,8.16228,8.16228,0,0,0,1.22461.47608,5.61952,5.61952,0,0,0,1.65723.22216,4.23017,4.23017,0,0,0,1.30175-.19042,3.07706,3.07706,0,0,0,1.01563-.53956,2.33521,2.33521,0,0,0,.65332-.85693,2.78648,2.78648,0,0,0,.22851-1.15527A2.16225,2.16225,0,0,0,109.857,66.049a3.20527,3.20527,0,0,0-.83789-.86963,7.32182,7.32182,0,0,0-1.1875-.68555q-.665-.31128-1.36426-.63476a14.884,14.884,0,0,1-1.35839-.71729,5.746,5.746,0,0,1-1.18067-.92676,4.33968,4.33968,0,0,1-.84473-1.25048,4.176,4.176,0,0,1-.32324-1.72022,4.31618,4.31618,0,0,1,.374-1.83447,3.792,3.792,0,0,1,1.041-1.35205,4.65713,4.65713,0,0,1,1.58789-.83155,6.666,6.666,0,0,1,1.98633-.28564,6.43657,6.43657,0,0,1,1.09766.09521,7.41084,7.41084,0,0,1,1.041.25391,5.79083,5.79083,0,0,1,.87012.35547,2.23606,2.23606,0,0,1,.501.31738.95819.95819,0,0,1,.15918.19043.70435.70435,0,0,1,.06347.17774,1.90481,1.90481,0,0,1,.03809.26025c.00879.10156.01269.23291.01269.39355a3.59994,3.59994,0,0,1-.01953.40625,1.48956,1.48956,0,0,1-.05664.29834.36813.36813,0,0,1-.10742.17774.24511.24511,0,0,1-.15918.05713,1.02586,1.02586,0,0,1-.43848-.17774q-.29736-.178-.72949-.3999a6.40251,6.40251,0,0,0-1.02246-.40625,4.444,4.444,0,0,0-1.32617-.18408,3.50616,3.50616,0,0,0-1.19336.18408,2.43853,2.43853,0,0,0-.83789.48877,1.94774,1.94774,0,0,0-.49512.72363,2.39662,2.39662,0,0,0-.165.88868,2.138,2.138,0,0,0,.31738,1.18066,3.2448,3.2448,0,0,0,.84473.876,7.4855,7.4855,0,0,0,1.19922.69824q.67236.31713,1.37109.64111.69873.32373,1.3711.71094a5.72363,5.72363,0,0,1,1.19922.91406,4.17583,4.17583,0,0,1,.85156,1.24414,4.10635,4.10635,0,0,1,.32324,1.69483,4.77059,4.77059,0,0,1-.4248,2.05664,4.42019,4.42019,0,0,1-1.18164,1.52978,5.10517,5.10517,0,0,1-1.77735.9458,7.38892,7.38892,0,0,1-2.20215.31739,7.87537,7.87537,0,0,1-1.53027-.13965A8.3903,8.3903,0,0,1,104.08742,71.36833Zm11.88379,40.61377a3.76158,3.76158,0,0,1-.43262.99952,3.49308,3.49308,0,0,1-.68554.79736,4.04361,4.04361,0,0,1-.915.58984,4.93662,4.93662,0,0,1-1.10645.36475,6.83428,6.83428,0,0,1-1.38086.12353H107.689a.72509.72509,0,0,1-.416-.15136.63843.63843,0,0,1-.21289-.55616V101.0324a.63844.63844,0,0,1,.21289-.55616.72509.72509,0,0,1,.416-.15136h3.1211a6.73615,6.73615,0,0,1,2.05566.2583,3.4404,3.4404,0,0,1,1.29688.73584,2.96988,2.96988,0,0,1,.76367,1.15625,4.2957,4.2957,0,0,1,.25293,1.51074,4.03726,4.03726,0,0,1-.11817.98828,3.31549,3.31549,0,0,1-.35351.876,3.12908,3.12908,0,0,1-.58985.73,3.23109,3.23109,0,0,1-.83691.55029,3.37808,3.37808,0,0,1,1.10156.4209,3.46406,3.46406,0,0,1,.90332.78076,3.64427,3.64427,0,0,1,.61231,1.09522,4.00239,4.00239,0,0,1,.22461,1.36425A4.48727,4.48727,0,0,1,115.97121,111.9821Zm4.80127-19.34668a.23647.23647,0,0,1-.03418.12354.2287.2287,0,0,1-.11816.08984,1.08475,1.08475,0,0,1-.21289.05615,1.98653,1.98653,0,0,1-.332.02247,1.92178,1.92178,0,0,1-.31445-.02247.96631.96631,0,0,1-.21289-.05615.22893.22893,0,0,1-.1123-.08984.23638.23638,0,0,1-.03418-.12354V79.52947h-.02149L113.6631,92.714a.27319.27319,0,0,1-.06738.08447.397.397,0,0,1-.124.06738,1.064,1.064,0,0,1-.18457.04492,1.71211,1.71211,0,0,1-.25293.01661,1.92981,1.92981,0,0,1-.26953-.01661.93857.93857,0,0,1-.18555-.04492.38964.38964,0,0,1-.11719-.06738.17078.17078,0,0,1-.05664-.08447l-5.43554-13.18457H106.958V92.63542a.23563.23563,0,0,1-.03321.12354.2287.2287,0,0,1-.11816.08984,1.08436,1.08436,0,0,1-.21289.05615,2.06371,2.06371,0,0,1-.34277.02247,1.89913,1.89913,0,0,1-.32032-.02247.94929.94929,0,0,1-.207-.05615.19975.19975,0,0,1-.10742-.08984.27442.27442,0,0,1-.02734-.12354V79.03533a.63843.63843,0,0,1,.21289-.55616.72506.72506,0,0,1,.416-.15136h.74024a1.78435,1.78435,0,0,1,.49414.06152,1.2248,1.2248,0,0,1,.377.17969,1.13034,1.13034,0,0,1,.27539.28662,2.315,2.315,0,0,1,.20117.38183l4.7959,11.54493h.05567l4.998-11.5a2.44633,2.44633,0,0,1,.24121-.45459A1.386,1.386,0,0,1,118.666,78.53a.84468.84468,0,0,1,.30372-.15722,1.332,1.332,0,0,1,.35351-.04492h.82031a.74667.74667,0,0,1,.21289.03369.50568.50568,0,0,1,.20215.11767.69814.69814,0,0,1,.15137.21924.81062.81062,0,0,1,.0625.33692Zm3.92529-21.52734a.84122.84122,0,0,1-.08886.28564.43344.43344,0,0,1-.14551.165.34986.34986,0,0,1-.18457.05078H116.395a.90213.90213,0,0,1-.55274-.19677.818.818,0,0,1-.25976-.6919V56.07048a.818.818,0,0,1,.25976-.69189.90214.90214,0,0,1,.55274-.19678H124.19a.344.344,0,0,1,.18359.05078.35291.35291,0,0,1,.13379.165,1.28764,1.28764,0,0,1,.083.28565,2.45694,2.45694,0,0,1,.03125.42529,2.28441,2.28441,0,0,1-.03125.3999,1.15976,1.15976,0,0,1-.083.2793.35714.35714,0,0,1-.13379.15869.344.344,0,0,1-.18359.05078h-6.42383v5.1543h5.50977a.31452.31452,0,0,1,.18359.05713.471.471,0,0,1,.14063.15869.82733.82733,0,0,1,.082.27929,3.06005,3.06005,0,0,1,.02539.419,2.67313,2.67313,0,0,1-.02539.39355.811.811,0,0,1-.082.26661.36287.36287,0,0,1-.14063.146.3782.3782,0,0,1-.18359.04444h-5.50977v5.87793h6.5127a.34977.34977,0,0,1,.18457.05078.445.445,0,0,1,.14551.15869.774.774,0,0,1,.08886.27929,3.02308,3.02308,0,0,1,.02539.4253A2.81007,2.81007,0,0,1,124.69777,71.10808Zm1.68994,21.52734a.23562.23562,0,0,1-.0332.12354.22893.22893,0,0,1-.1123.08984.976.976,0,0,1-.208.05615,1.97375,1.97375,0,0,1-.33106.02247,1.99491,1.99491,0,0,1-.32519-.02247.977.977,0,0,1-.21387-.05615.22893.22893,0,0,1-.1123-.08984.23563.23563,0,0,1-.03321-.12354v-14.083a.20972.20972,0,0,1,.03907-.12354.26642.26642,0,0,1,.123-.08984,1.11605,1.11605,0,0,1,.21387-.05616,1.80788,1.80788,0,0,1,.30859-.02246,1.975,1.975,0,0,1,.33106.02246.97649.97649,0,0,1,.208.05616.22893.22893,0,0,1,.1123.08984.23562.23562,0,0,1,.0332.12354Zm14.67871-.438a.81139.81139,0,0,1-.06152.33691.65125.65125,0,0,1-.15723.21924.54915.54915,0,0,1-.21386.11767.7962.7962,0,0,1-.21875.03369h-.28125a1.398,1.398,0,0,1-.40918-.05615,1.06421,1.06421,0,0,1-.35938-.19677,2.01387,2.01387,0,0,1-.34863-.376,6.361,6.361,0,0,1-.38672-.60645l-5.12109-9.07422q-.38234-.66284-.76953-1.36425-.38819-.70239-.73633-1.36475h-.01074q.01172.81958.01074,1.6792V92.63542a.23562.23562,0,0,1-.0332.12354.229.229,0,0,1-.11231.08984.97578.97578,0,0,1-.208.05615,1.97362,1.97362,0,0,1-.33105.02247,1.995,1.995,0,0,1-.3252-.02247.97686.97686,0,0,1-.21386-.05615.22891.22891,0,0,1-.11231-.08984.23562.23562,0,0,1-.0332-.12354V79.03533a.63843.63843,0,0,1,.21289-.55616.72509.72509,0,0,1,.416-.15136h.56055a1.89437,1.89437,0,0,1,.44922.04492.93209.93209,0,0,1,.32617.15137,1.31907,1.31907,0,0,1,.28613.30371,5.45272,5.45272,0,0,1,.30957.49951l3.919,6.95166q.3706.65112.70215,1.25195.33105.60132.64551,1.17969.31494.57788.623,1.13965.30909.56177.61231,1.13427h.01172q-.01173-.94335-.01172-1.96533V78.59734a.24512.24512,0,0,1,.0332-.12354.26618.26618,0,0,1,.11328-.09521.661.661,0,0,1,.207-.05664,2.76577,2.76577,0,0,1,.332-.0166,2.68149,2.68149,0,0,1,.31446.0166.67907.67907,0,0,1,.21289.05664.30258.30258,0,0,1,.11816.09521.20973.20973,0,0,1,.03906.12354ZM155.79933,80.4279a.82571.82571,0,0,1-.06152.20752.32364.32364,0,0,1-.10058.1294.21654.21654,0,0,1-.12891.04492.96546.96546,0,0,1-.44434-.22461,6.33062,6.33062,0,0,0-.82519-.48877,7.795,7.795,0,0,0-1.252-.48828,6.00653,6.00653,0,0,0-1.74609-.22461,5.3284,5.3284,0,0,0-2.30273.47754,4.94844,4.94844,0,0,0-1.707,1.30811,5.77258,5.77258,0,0,0-1.06153,1.97119,8.00588,8.00588,0,0,0-.36426,2.45361,7.68849,7.68849,0,0,0,.415,2.62256,5.61678,5.61678,0,0,0,1.15137,1.94238,4.87317,4.87317,0,0,0,1.75195,1.20752,5.80923,5.80923,0,0,0,2.21778.41553,6.725,6.725,0,0,0,1.57226-.19092,5.73861,5.73861,0,0,0,1.49317-.584V86.30144h-3.70508a.29053.29053,0,0,1-.26953-.15723.90932.90932,0,0,1-.08985-.44922,1.52669,1.52669,0,0,1,.02149-.27539.57227.57227,0,0,1,.06836-.19043.31072.31072,0,0,1,.11133-.1123.3068.3068,0,0,1,.1582-.03955h4.44726a.74667.74667,0,0,1,.21289.03369.592.592,0,0,1,.208.1123.531.531,0,0,1,.15137.21875.93228.93228,0,0,1,.05664.34278v5.40185a1.12862,1.12862,0,0,1-.085.46045.86954.86954,0,0,1-.3877.36524,7.00215,7.00215,0,0,1-.80859.38183,8.07527,8.07527,0,0,1-1.04394.34766,9.08632,9.08632,0,0,1-1.084.21387,8.12449,8.12449,0,0,1-1.07226.07275,7.6901,7.6901,0,0,1-2.94825-.53369,6.04842,6.04842,0,0,1-2.18945-1.50488,6.60227,6.60227,0,0,1-1.36523-2.31348,9.58143,9.58143,0,0,1,.04-6.05274A6.89617,6.89617,0,0,1,146.271,80.237a6.417,6.417,0,0,1,2.21778-1.53321,7.71575,7.71575,0,0,1,4.34082-.39843,8.84172,8.84172,0,0,1,1.26269.35351,5.442,5.442,0,0,1,.95508.44922,3.23574,3.23574,0,0,1,.5332.38184.80634.80634,0,0,1,.19141.27539,1.18622,1.18622,0,0,1,.05078.39306A1.45,1.45,0,0,1,155.79933,80.4279Z" transform="translate(-20.27163 -26.85869)"/><path class="cls-1" d="M95.99953,63.31951a3.08444,3.08444,0,0,0,1.09863-.70459,2.95425,2.95425,0,0,0,.67285-1.07911,3.96508,3.96508,0,0,0,.22852-1.36474,3.40572,3.40572,0,0,0-.375-1.67578,2.60739,2.60739,0,0,0-.92578-1.00293,3.12642,3.12642,0,0,0-1.14258-.41895,7.757,7.757,0,0,0-1.14941-.08887H92.3882v6.58887H94.356A4.57259,4.57259,0,0,0,95.99953,63.31951Z" transform="translate(-20.27163 -26.85869)"/></svg>