<?xml version="1.0" encoding="utf-8"?>
<!-- Generator: Adobe Illustrator 23.1.0, SVG Export Plug-In . SVG Version: 6.00 Build 0)  -->
<svg version="1.1" id="Layer_1" xmlns="http://www.w3.org/2000/svg" xmlns:xlink="http://www.w3.org/1999/xlink" x="0px" y="0px"
	 viewBox="0 0 774.6 413.9" style="enable-background:new 0 0 774.6 413.9;" xml:space="preserve">
<style type="text/css">
	.st0{fill:#FFFFFF;}
	.st1{fill:#F58026;}
	.st2{fill-rule:evenodd;clip-rule:evenodd;fill:#F58026;}
</style>
<g>
	
		<image style="overflow:visible;opacity:0.68;" width="366" height="330" xlink:href="F6C4E747.png"  transform="matrix(1 0 0 1 423.8645 38.01)">
	</image>
	<g>
		<g>
			<g>
				<path class="st0" d="M478.7,62.1l-6.7,5.4c-1.8-1.8-3.4-3.2-4.8-4.1c-1.4-0.9-3.5-1.3-6.2-1.3c-3,0-5.4,0.7-7.2,2
					c-1.8,1.3-2.8,3.1-2.8,5.2c0,1.8,0.8,3.4,2.4,4.8s4.4,2.9,8.2,4.6c3.9,1.7,6.9,3.2,9.1,4.7c2.2,1.4,3.9,3,5.3,4.8
					c1.4,1.7,2.4,3.6,3.1,5.5c0.7,1.9,1,4,1,6.1c0,5-1.8,9.3-5.5,12.8c-3.6,3.5-8.1,5.3-13.2,5.3c-5.1,0-9.5-1.4-13.4-4.1
					c-3.9-2.8-6.8-6.9-8.9-12.4l8.2-2.3c3,6.8,7.6,10.2,13.8,10.2c3,0,5.5-0.9,7.5-2.7c2-1.8,3-4.1,3-6.8c0-1.6-0.5-3.3-1.6-4.9
					c-1-1.7-2.3-3-3.9-4.1c-1.5-1.1-4-2.3-7.4-3.7c-3.4-1.4-6-2.7-7.8-3.8c-1.8-1.2-3.4-2.5-4.7-4.1c-1.3-1.6-2.3-3.2-2.9-4.8
					c-0.6-1.6-0.9-3.3-0.9-5.1c0-4.3,1.7-8,5.2-11.1c3.5-3,7.7-4.6,12.6-4.6c3.3,0,6.6,0.7,10,2.1S476.5,59.2,478.7,62.1z"/>
				<path class="st0" d="M492.6,55.8h11.9c6.7,0,12.2,1.6,16.3,4.8c4.1,3.2,6.2,7.4,6.2,12.5c0,5.1-2.2,9.5-6.5,13
					c-4.4,3.5-11,5.2-19.8,5.1v24.7h-8V55.8z M500.6,62.6v21.1c6.2-0.1,10.8-0.9,13.8-2.6c3-1.7,4.5-4.4,4.5-8.1
					c0-2.8-1.1-5.2-3.4-7.3C513.2,63.6,508.2,62.6,500.6,62.6z"/>
				<path class="st0" d="M575.7,62.1l-6.7,5.4c-1.8-1.8-3.4-3.2-4.8-4.1c-1.4-0.9-3.5-1.3-6.2-1.3c-3,0-5.4,0.7-7.2,2
					c-1.8,1.3-2.8,3.1-2.8,5.2c0,1.8,0.8,3.4,2.4,4.8s4.4,2.9,8.2,4.6c3.9,1.7,6.9,3.2,9.1,4.7c2.2,1.4,3.9,3,5.3,4.8
					c1.4,1.7,2.4,3.6,3.1,5.5c0.7,1.9,1,4,1,6.1c0,5-1.8,9.3-5.5,12.8c-3.6,3.5-8.1,5.3-13.2,5.3c-5.1,0-9.5-1.4-13.4-4.1
					c-3.9-2.8-6.8-6.9-8.9-12.4l8.2-2.3c3,6.8,7.6,10.2,13.8,10.2c3,0,5.5-0.9,7.5-2.7c2-1.8,3-4.1,3-6.8c0-1.6-0.5-3.3-1.6-4.9
					c-1-1.7-2.3-3-3.9-4.1c-1.5-1.1-4-2.3-7.4-3.7c-3.4-1.4-6-2.7-7.8-3.8c-1.8-1.2-3.4-2.5-4.7-4.1c-1.3-1.6-2.3-3.2-2.9-4.8
					c-0.6-1.6-0.9-3.3-0.9-5.1c0-4.3,1.7-8,5.2-11.1c3.5-3,7.7-4.6,12.6-4.6c3.3,0,6.6,0.7,10,2.1S573.5,59.2,575.7,62.1z"/>
				<path class="st0" d="M586.6,55.8h33v8h-25v15h25v8h-25v21h25v8h-33V55.8z"/>
				<path class="st0" d="M500.1,182.2l-5.9,5.8c-6-5.9-12.9-8.8-20.7-8.8c-6.9,0-12.6,2.2-17.1,6.6c-4.6,4.4-6.9,9.9-6.9,16.5
					c0,5.8,2.2,11,6.6,15.6c4.4,4.6,10.5,7,18.3,7c11.7,0,19-5.1,22-15.2h-15.8v-8h25c0,4-0.3,7.2-0.8,9.6c-0.5,2.4-1.6,5-3.3,7.9
					c-1.7,2.9-3.9,5.5-6.7,7.7c-2.8,2.3-5.8,3.9-9,4.9c-3.2,1-7,1.5-11.5,1.5c-10.1,0-18.2-3.2-24.2-9.5c-6-6.4-9-13.6-9-21.8
					c0-8.6,3.1-15.9,9.2-22c6.2-6,13.6-9.1,22.4-9.1c5.2,0,10,0.8,14.3,2.4C491.2,174.9,495.6,177.9,500.1,182.2z"/>
				<path class="st0" d="M548.6,192.8h8v39h-8V224c-3.9,5.9-8.7,8.8-14.5,8.8c-5,0-9.3-2-12.8-6.1c-3.5-4-5.3-8.9-5.3-14.7
					c0-5.5,1.8-10.2,5.4-14.3c3.6-4.1,7.8-6.1,12.6-6.1c3,0,5.8,0.8,8.5,2.5c2.7,1.7,4.7,3.8,6.2,6.5V192.8z M549.9,212.7
					c0-3.6-1.3-6.6-3.8-9.2c-2.6-2.5-5.6-3.8-9.2-3.8c-3.5,0-6.5,1.3-9.1,3.8c-2.6,2.5-3.9,5.5-3.9,8.9c0,3.7,1.3,6.8,3.8,9.4
					c2.5,2.6,5.6,3.9,9.2,3.9c3.6,0,6.6-1.3,9.2-3.9C548.6,219.3,549.9,216.3,549.9,212.7z"/>
				<path class="st0" d="M568.6,231.8v-39h8v6c1.9-2.5,3.8-4.3,5.5-5.4c1.8-1.1,3.8-1.7,6.1-1.7c3,0,5.3,0.6,7,1.9
					c1.7,1.3,3.1,3.4,4.3,6.2c2.1-2.8,4.1-4.9,6-6.2c1.9-1.3,4.2-1.9,6.7-1.9c3.1,0,5.8,1.2,8.1,3.5c2.3,2.3,3.4,5.1,3.4,8.2v28.4
					h-8v-26.3c0-4.3-2.1-6.5-6.3-6.5c-2.4,0-4.5,1.1-6.1,3.3c-1.7,2.2-2.5,4.9-2.5,8.2v21.3h-9v-25.2c0-5.1-2.1-7.7-6.2-7.7
					c-2.5,0-4.5,1-6.2,3.1c-1.7,2.1-2.6,4.7-2.6,7.7v22H568.6z"/>
				<path class="st0" d="M632.6,180.2c0-1.7,0.6-3.2,1.9-4.4c1.3-1.2,2.8-1.9,4.5-1.9c1.7,0,3.2,0.6,4.4,1.9
					c1.2,1.2,1.9,2.7,1.9,4.4c0,1.7-0.6,3.2-1.9,4.5s-2.7,1.8-4.4,1.8c-1.7,0-3.2-0.6-4.5-1.8C633.2,183.5,632.6,182,632.6,180.2z
					 M634.6,192.8h8v39h-8V192.8z"/>
				<path class="st0" d="M653.6,231.8v-39h8v6.5c2.4-2.6,4.6-4.5,6.5-5.7c1.9-1.2,4.1-1.8,6.5-1.8c3.6,0,6.6,1.2,9.2,3.5
					c2.5,2.3,3.8,5.1,3.8,8.4v28.2h-8V206c0-2.1-0.7-3.9-2-5.3c-1.3-1.4-3.1-2.1-5.1-2.1c-2.7,0-5,1.2-6.9,3.5
					c-1.9,2.3-2.9,5.1-2.9,8.4v21.3H653.6z"/>
				<path class="st0" d="M730.6,192.8h8v37.6c0,5.5-1.9,10.2-5.7,14.1s-8.4,5.8-13.7,5.8c-4.1,0-7.8-1.1-11.2-3.3
					c-3.4-2.2-5.9-5.6-7.5-10.2h8.5c2.5,4.2,6.1,6.4,10.6,6.4c3.1,0,5.7-1.1,7.9-3.3c2.2-2.2,3.2-4.9,3.2-8v-7.4
					c-4,5.8-8.9,8.7-15,8.7c-5,0-9.3-2.1-13-6.2c-3.7-4.1-5.5-9-5.5-14.6c0-5.6,1.8-10.5,5.4-14.5c3.6-4,7.9-6,12.8-6
					c6.4,0,11.5,3.1,15.2,9.4V192.8z M731.5,212.5c0-3.7-1.3-6.7-3.8-9.2s-5.7-3.7-9.4-3.7c-3.4,0-6.5,1.3-9.1,3.8
					c-2.6,2.6-3.9,5.5-3.9,8.9c0,3.6,1.3,6.8,3.9,9.4c2.6,2.6,5.7,3.9,9.2,3.9c3.6,0,6.7-1.3,9.3-3.8
					C730.2,219.3,731.5,216.2,731.5,212.5z"/>
				<path class="st0" d="M442.6,288.8h8v23h29v-23h8v60h-8v-29h-29v29h-8V288.8z"/>
				<path class="st0" d="M498.6,309.8h8v22c0,6.8,3.1,10.2,9.2,10.2c2.7,0,4.9-0.9,6.5-2.7c1.6-1.8,2.4-4.3,2.4-7.5v-22h8v23.3
					c0,4.9-1.6,8.9-4.8,12.1c-3.2,3.2-7.3,4.7-12.2,4.7c-5.1,0-9.2-1.6-12.3-4.7c-3.1-3.2-4.7-7.3-4.7-12.4V309.8z"/>
				<path class="st0" d="M543.6,287.8h8v29.9c3.4-5.8,8.4-8.7,14.8-8.7c5,0,9.3,2,12.9,6c3.6,4,5.5,8.8,5.5,14.3
					c0,5.5-1.8,10.3-5.4,14.5c-3.6,4.1-7.8,6.2-12.5,6.2c-3.1,0-6-0.8-8.7-2.5c-2.8-1.7-4.9-3.9-6.5-6.8v8.2h-8V287.8z M576.6,328.8
					c0-3.6-1.3-6.6-3.8-9.2c-2.6-2.5-5.7-3.8-9.3-3.8c-3.5,0-6.5,1.3-9.1,3.9s-3.9,5.6-3.9,9.1c0,3.7,1.3,6.7,3.9,9.3
					c2.6,2.5,5.7,3.8,9.5,3.8c3.5,0,6.5-1.3,9-3.8C575.4,335.5,576.6,332.4,576.6,328.8z"/>
			</g>
			<circle class="st1" cx="646.6" cy="104" r="12"/>
			<circle class="st1" cx="762.6" cy="227.2" r="12"/>
			<circle class="st1" cx="611.1" cy="340.4" r="12"/>
		</g>
	</g>
</g>
<g>
	
		<image style="overflow:visible;opacity:0.75;enable-background:new    ;" width="1183" height="1185" xlink:href="F6C4E742.png"  transform="matrix(0.4788 0 0 0.4788 -76.5337 -76.907)">
	</image>
	<g>
		<path class="st2" d="M206.8,0C92.8,0-0.2,92.9-0.2,206.9s92.9,206.9,206.9,206.9s206.9-92.9,206.9-206.9S320.7,0,206.8,0L206.8,0z
			 M206.8,14.2c106.1,0,192.7,86.6,192.7,192.7s-86.6,192.8-192.7,192.8S14,313.1,14,206.9S100.6,14.2,206.8,14.2L206.8,14.2z
			 M206.8,79.4c70.2,0,127.5,57.3,127.5,127.5S277,334.4,206.8,334.4S79.3,277.1,79.3,206.9C79.3,136.7,136.6,79.4,206.8,79.4
			L206.8,79.4z M205.3,331.6c-68-0.5-123.3-56.5-123.3-124.7c0-21.8,5.8-42.3,15.7-60.2l62.9,89.9l0,0l-13.9,2.7l32.1,24.3h-17.4
			V292h43.9L205.3,331.6L205.3,331.6z M314.2,143.9l-83.8,119.7h-47.4l-0.5-0.7l0.1-0.1L170,223l-7.1,11.9L99.3,144
			c21.5-36.9,61.9-61.8,107.5-61.8C252.4,82.2,292.7,107,314.2,143.9L314.2,143.9z M208.1,331.6V292h44v-28.4l-18.4,0.1l81.9-117.1
			c9.9,17.9,15.8,38.5,15.8,60.4C331.5,275.1,276.2,331.1,208.1,331.6L208.1,331.6z M366.2,288.5l-36.8-16l11.9-27.3l6.2,2.7
			l-8.6,19.9l8.2,3.5l8-18.5l6.2,2.7l-8,18.5l10,4.4l9-20.6l6.2,2.7L366.2,288.5L366.2,288.5z M337.6,306l7-4.3
			c2.5,3.8,3.7,7.4,3.4,11c-0.2,3.5-1.8,6.9-4.6,10.1c-3.5,4-7.7,6.1-12.7,6.4c-5,0.2-9.9-1.8-14.7-5.9c-5-4.4-7.8-9.1-8.4-14.1
			c-0.5-5,1-9.7,4.7-13.9c3.2-3.7,6.9-5.8,11.1-6.2c2.5-0.3,5.3,0.3,8.3,1.7l-3.8,7.3c-1.9-1-3.8-1.3-5.7-1s-3.5,1.3-5,3
			c-2,2.3-2.7,4.8-2.3,7.6c0.4,2.8,2.4,5.8,6,8.9c3.8,3.3,7.2,5,10,5c2.8,0,5.2-1,7.1-3.3c1.4-1.6,2.1-3.5,2.1-5.5
			C340.3,310.7,339.4,308.4,337.6,306L337.6,306z M303.1,356.9L281.5,323l6.8-4.4l21.7,33.8L303.1,356.9L303.1,356.9z M191,345.3
			l8.1-0.1l0.2,21.8c0,3.5,0.2,5.7,0.4,6.7c0.4,1.6,1.2,3,2.5,3.9c1.3,1,3.1,1.5,5.4,1.4c2.3,0,4-0.5,5.2-1.5c1.2-1,1.9-2.1,2.1-3.5
			c0.2-1.4,0.3-3.6,0.3-6.8l-0.2-22.2l8.1-0.1l0.2,21.1c0.1,4.8-0.1,8.2-0.6,10.2s-1.2,3.7-2.4,5.1c-1.2,1.4-2.7,2.5-4.7,3.3
			c-2,0.8-4.5,1.3-7.7,1.3c-3.8,0-6.8-0.4-8.7-1.2s-3.6-2-4.7-3.4s-1.9-2.9-2.3-4.4c-0.6-2.3-0.9-5.7-0.9-10.2L191,345.3L191,345.3z
			 M65,241l1.2,3.8c0.9,2.8,1.3,4.7,1.4,5.7c0.2,1.3-0.1,2.5-0.7,3.6c-0.7,1.1-1.7,1.9-3.1,2.3c-1.1,0.4-2.2,0.4-3.3,0
			c-1-0.3-1.9-0.9-2.6-1.8c-0.7-0.9-1.5-2.9-2.5-6l-1.3-4.2L65,241L65,241z M30.7,243l38.4-11.8l3.8,12.4c1.4,4.7,2.2,7.9,2.3,9.4
			c0.1,2.4-0.6,4.6-2.1,6.7c-1.5,2.1-3.7,3.6-6.8,4.5c-2.4,0.7-4.5,0.9-6.3,0.5c-1.9-0.4-3.5-1.1-4.8-2.1c-1.3-1-2.3-2.2-3-3.5
			c-0.9-1.7-2-4.4-3-7.9l-1.5-5l-14.5,4.5L30.7,243L30.7,243z M73.7,301.3l-5.7-9.4l15.6-3L73.7,301.3L73.7,301.3z M67.8,322.3
			l-4.6-7.6l6-7.7L61,293.3l-9.5,1.9l-4.4-7.4l42.5-7.3l4.4,7.4L67.8,322.3L67.8,322.3z M106,325.3l6.4-7.9l4.9,4
			c2.6,2.1,4.1,3.3,4.5,3.8c0.9,1,1.4,2,1.4,3.1s-0.4,2.2-1.2,3.2c-0.8,0.9-1.6,1.5-2.5,1.8c-0.9,0.3-1.9,0.3-2.8-0.1
			c-1-0.4-2.9-1.8-6-4.2L106,325.3L106,325.3z M85.2,338.2l25.2-31.2l13.3,10.7c3.3,2.7,5.5,4.9,6.6,6.7s1.5,3.8,1.2,5.9
			c-0.3,2.2-1.1,4.2-2.6,6c-1.9,2.3-4.2,3.7-6.8,4.1c-2.6,0.4-5.4-0.3-8.5-2.1c0.7,1.9,1.1,3.7,1.3,5.4c0.1,1.7-0.1,4.3-0.5,8
			l-1.1,9.2l-7.5-6.1l0.9-10.5c0.3-3.7,0.5-6.2,0.4-7.3c-0.1-1.1-0.4-2.1-0.8-2.8c-0.5-0.8-1.4-1.7-2.9-2.9l-1.3-1l-10.5,13
			L85.2,338.2L85.2,338.2z M152.9,341.9l3.4,1.2c3.1,1.1,5.2,1.9,6.2,2.5c1.3,0.8,2.3,1.8,2.9,3c0.6,1.2,0.9,2.7,0.9,4.4
			c0,1.8-0.5,4.1-1.5,7s-2.1,5.2-3.2,6.7c-1.1,1.5-2.2,2.5-3.3,3c-1.1,0.5-2.3,0.6-3.6,0.5c-1-0.1-2.6-0.5-4.8-1.2l-5.7-2
			L152.9,341.9L152.9,341.9z M147.4,332.9l14,4.8c3.2,1.1,5.5,2.1,7,3.2c2,1.4,3.5,3.2,4.5,5.5c1,2.2,1.5,4.7,1.5,7.4
			c0,2.7-0.6,5.9-1.8,9.4c-1.1,3.1-2.4,5.7-3.9,7.7c-1.9,2.4-4,4.2-6.4,5.3c-1.8,0.8-3.9,1.2-6.4,1.2c-1.9,0-4.2-0.5-7.1-1.5
			l-14.4-5L147.4,332.9L147.4,332.9z M253,361.3l6.2-2c3.5-1.1,5.9-1.7,7-1.7c1.2,0,2.2,0.4,3,1c0.8,0.6,1.4,1.5,1.8,2.6
			c0.4,1.4,0.4,2.5,0,3.6c-0.5,1-1.2,1.9-2.3,2.4c-0.7,0.4-2.4,1-5.2,2l-7.1,2.3L253,361.3L253,361.3z M248.1,346.1l4.4-1.4
			c3.6-1.2,5.8-1.9,6.6-2c1.3-0.3,2.4-0.1,3.3,0.4c0.9,0.5,1.5,1.4,1.9,2.6c0.4,1.2,0.4,2.4-0.1,3.4c-0.5,1-1.4,1.8-2.7,2.4
			c-0.7,0.3-2.5,1-5.6,2l-5,1.6L248.1,346.1L248.1,346.1z M238.3,342.2l15.3-5c3-1,5.3-1.6,6.9-1.8c1.6-0.2,3.1-0.1,4.5,0.3
			c1.4,0.4,2.8,1.2,4,2.2c1.2,1.1,2.1,2.4,2.6,4.1c0.6,1.8,0.6,3.6,0.2,5.4c-0.5,1.8-1.4,3.4-2.8,4.6c2.5-0.1,4.7,0.5,6.5,1.7
			c1.8,1.2,3,2.9,3.8,5.1c0.6,1.7,0.7,3.5,0.5,5.5c-0.3,1.9-1,3.6-2,5c-1.1,1.4-2.6,2.6-4.6,3.5c-1.2,0.5-4.3,1.6-9.2,3.3l-13,4.2
			L238.3,342.2L238.3,342.2z M258.5,79.6l19.3-35.2l26.1,14.3l-3.3,6l-19-10.4l-4.3,7.8l17.7,9.7l-3.2,5.9l-17.7-9.7l-5.3,9.6
			l19.7,10.8l-3.3,5.9L258.5,79.6L258.5,79.6z M121,83.2l6.7-4.3c1.6,2.2,3.4,3.4,5.2,3.9c1.9,0.4,3.9,0.1,6.1-1
			c2.3-1.2,3.8-2.6,4.5-4.2c0.7-1.6,0.7-3,0-4.3c-0.4-0.8-1.1-1.4-1.9-1.8c-0.8-0.3-1.9-0.4-3.4-0.2c-1,0.1-3.2,0.6-6.6,1.4
			c-4.4,1-7.7,1.2-10,0.6c-3.2-0.8-5.5-2.7-7-5.5c-0.9-1.8-1.3-3.8-1.1-5.9c0.2-2.1,1.1-4.1,2.6-5.9c1.5-1.8,3.7-3.4,6.4-4.8
			c4.5-2.3,8.4-3,11.7-2.2c3.3,0.8,5.8,2.8,7.6,6.1l-7.1,4c-1.3-1.7-2.6-2.7-4-2.9c-1.4-0.3-3.2,0.1-5.2,1.1
			c-2.1,1.1-3.5,2.3-4.3,3.8c-0.5,0.9-0.5,1.9,0,2.8c0.4,0.8,1.2,1.4,2.2,1.6c1.3,0.3,3.9,0,7.9-1c3.9-1,7-1.4,9.1-1.4
			c2.1,0,4.1,0.6,5.8,1.6c1.7,1.1,3.2,2.7,4.3,5c1,2.1,1.5,4.3,1.2,6.6c-0.2,2.4-1.2,4.5-2.8,6.4c-1.6,1.9-4,3.7-7.1,5.3
			c-4.5,2.3-8.5,3-12,2.2C126.5,89.3,123.5,87,121,83.2L121,83.2z M171.1,41.2l3.8-1c2.8-0.7,4.7-1.1,5.7-1.2
			c1.3-0.1,2.5,0.2,3.6,0.9c1.1,0.7,1.8,1.8,2.2,3.2c0.3,1.2,0.3,2.2-0.1,3.3c-0.4,1-1,1.9-2,2.5s-3,1.4-6.1,2.2l-4.3,1.1
			L171.1,41.2L171.1,41.2z M171.6,75.5l-10.1-38.9l12.6-3.3c4.8-1.2,7.9-1.8,9.5-1.8c2.4,0,4.6,0.8,6.6,2.3c2,1.6,3.4,3.9,4.2,7
			c0.6,2.4,0.7,4.5,0.3,6.4c-0.4,1.9-1.2,3.4-2.3,4.7c-1.1,1.3-2.3,2.2-3.6,2.9c-1.8,0.9-4.4,1.8-8,2.7l-5.1,1.3l3.8,14.7
			L171.6,75.5L171.6,75.5z M228.9,21l6.1,1.1l2.2,4.5l3.8-3.5l6.1,1.1l-7,7l-7-1.2L228.9,21L228.9,21z M215.3,56.9l7.9,0.6
			c0,2.7,0.6,4.8,1.8,6.3c1.2,1.5,3,2.4,5.5,2.8c2.6,0.4,4.6,0.3,6.1-0.6c1.5-0.9,2.4-2,2.6-3.5c0.2-0.9,0-1.8-0.4-2.5
			c-0.4-0.8-1.3-1.5-2.6-2.2c-0.9-0.5-2.9-1.4-6.1-2.9c-4.1-1.8-6.9-3.7-8.3-5.5c-2.1-2.6-2.8-5.5-2.2-8.6c0.4-2,1.3-3.8,2.7-5.3
			c1.4-1.5,3.3-2.6,5.6-3.1c2.3-0.5,5-0.5,8,0c5,0.9,8.5,2.6,10.6,5.2c2.1,2.6,2.9,5.8,2.4,9.4l-8.1-1.1c0-2.1-0.5-3.7-1.4-4.8
			c-1-1.1-2.6-1.8-4.8-2.2c-2.3-0.4-4.2-0.3-5.7,0.5c-1,0.5-1.5,1.2-1.7,2.2c-0.2,0.9,0.1,1.8,0.8,2.6c0.9,1,3.1,2.3,6.9,3.9
			c3.7,1.6,6.4,3.1,8.1,4.4s2.9,2.9,3.7,4.8s0.9,4.1,0.5,6.6c-0.4,2.3-1.4,4.3-3,6c-1.6,1.8-3.6,2.9-6.1,3.5
			c-2.5,0.6-5.4,0.5-8.9-0.1c-5-0.9-8.6-2.7-10.9-5.5C216.1,65,215.1,61.4,215.3,56.9z"/>
	</g>
</g>
</svg>
