<?xml version="1.0" encoding="utf-8"?>
<!-- Generator: Adobe Illustrator 23.1.0, SVG Export Plug-In . SVG Version: 6.00 Build 0)  -->
<svg version="1.1" id="Layer_1" xmlns="http://www.w3.org/2000/svg" xmlns:xlink="http://www.w3.org/1999/xlink" x="0px" y="0px"
	 viewBox="0 0 413.9 413.9" style="enable-background:new 0 0 413.9 413.9;" xml:space="preserve">
<style type="text/css">
	.st0{fill-rule:evenodd;clip-rule:evenodd;fill:#F58026;}
</style>
<g>
	
		<image style="overflow:visible;opacity:0.75;enable-background:new    ;" width="1183" height="1185" xlink:href="A8C86C31.png"  transform="matrix(0.4788 0 0 0.4788 -76.3682 -76.907)">
	</image>
	<g>
		<path class="st0" d="M206.9,0C92.9,0,0,92.9,0,206.9s92.9,206.9,206.9,206.9s206.9-92.9,206.9-206.9S320.9,0,206.9,0L206.9,0z
			 M206.9,14.2c106.1,0,192.7,86.6,192.7,192.7s-86.6,192.8-192.7,192.8S14.2,313.1,14.2,206.9S100.8,14.2,206.9,14.2L206.9,14.2z
			 M206.9,79.4c70.2,0,127.5,57.3,127.5,127.5s-57.3,127.5-127.5,127.5S79.4,277.1,79.4,206.9C79.4,136.7,136.7,79.4,206.9,79.4
			L206.9,79.4z M205.5,331.6c-68-0.5-123.3-56.5-123.3-124.7c0-21.8,5.8-42.3,15.7-60.2l62.9,89.9l0,0l-13.9,2.7l32.1,24.3h-17.4
			V292h43.9L205.5,331.6L205.5,331.6z M314.4,143.9l-83.8,119.7h-47.4l-0.5-0.7l0.1-0.1L170.2,223l-7.1,11.9L99.4,144
			c21.5-36.9,61.8-61.8,107.5-61.8C252.6,82.2,292.8,107,314.4,143.9L314.4,143.9z M208.3,331.6V292h44v-28.4l-18.4,0.1l81.9-117.1
			c9.9,17.9,15.8,38.5,15.8,60.4C331.6,275.1,276.3,331.1,208.3,331.6L208.3,331.6z M366.3,288.5l-36.8-16l11.9-27.3l6.2,2.7
			l-8.6,19.9l8.2,3.5l8-18.5l6.2,2.7l-8,18.5l10,4.4l9-20.6l6.2,2.7L366.3,288.5L366.3,288.5z M337.8,306l7-4.3
			c2.5,3.8,3.7,7.4,3.4,11c-0.2,3.5-1.8,6.9-4.6,10.1c-3.5,4-7.7,6.1-12.7,6.4c-5,0.2-9.9-1.8-14.7-5.9c-5-4.4-7.8-9.1-8.4-14.1
			c-0.5-5,1-9.7,4.7-13.9c3.2-3.7,6.9-5.8,11.1-6.2c2.5-0.3,5.3,0.3,8.3,1.7l-3.8,7.3c-1.9-1-3.8-1.3-5.7-1s-3.5,1.3-5,3
			c-2,2.3-2.7,4.8-2.3,7.6c0.4,2.8,2.4,5.8,6,8.9c3.8,3.3,7.2,5,10,5c2.8,0,5.2-1,7.1-3.3c1.4-1.6,2.1-3.5,2.1-5.5
			C340.5,310.7,339.6,308.4,337.8,306L337.8,306z M303.3,356.9L281.6,323l6.8-4.4l21.7,33.8L303.3,356.9L303.3,356.9z M191.1,345.3
			l8.1-0.1l0.2,21.8c0,3.5,0.2,5.7,0.4,6.7c0.4,1.6,1.2,3,2.5,3.9c1.3,1,3.1,1.5,5.4,1.4c2.3,0,4-0.5,5.2-1.5c1.2-1,1.9-2.1,2.1-3.5
			c0.2-1.4,0.3-3.6,0.3-6.8l-0.2-22.2l8.1-0.1l0.2,21.1c0.1,4.8-0.1,8.2-0.6,10.2s-1.2,3.7-2.4,5.1c-1.2,1.4-2.7,2.5-4.7,3.3
			c-2,0.8-4.5,1.3-7.7,1.3c-3.8,0-6.8-0.4-8.7-1.2s-3.6-2-4.7-3.4s-1.9-2.9-2.3-4.4c-0.6-2.3-0.9-5.7-0.9-10.2L191.1,345.3
			L191.1,345.3z M65.1,241l1.2,3.8c0.9,2.8,1.3,4.7,1.4,5.7c0.2,1.3-0.1,2.5-0.7,3.6c-0.7,1.1-1.7,1.9-3.1,2.3
			c-1.1,0.4-2.2,0.4-3.3,0c-1-0.3-1.9-0.9-2.6-1.8c-0.7-0.9-1.5-2.9-2.5-6l-1.3-4.2L65.1,241L65.1,241z M30.9,243l38.4-11.8
			l3.8,12.4c1.4,4.7,2.2,7.9,2.3,9.4c0.1,2.4-0.6,4.6-2.1,6.7c-1.5,2.1-3.7,3.6-6.8,4.5c-2.4,0.7-4.5,0.9-6.3,0.5
			c-1.9-0.4-3.5-1.1-4.8-2.1c-1.3-1-2.3-2.2-3-3.5c-0.9-1.7-2-4.4-3-7.9l-1.5-5l-14.5,4.5L30.9,243L30.9,243z M73.9,301.3l-5.7-9.4
			l15.6-3L73.9,301.3L73.9,301.3z M68,322.3l-4.6-7.6l6-7.7l-8.3-13.8l-9.5,1.9l-4.4-7.4l42.5-7.3l4.4,7.4L68,322.3L68,322.3z
			 M106.2,325.3l6.4-7.9l4.9,4c2.6,2.1,4.1,3.3,4.5,3.8c0.9,1,1.4,2,1.4,3.1s-0.4,2.2-1.2,3.2c-0.8,0.9-1.6,1.5-2.5,1.8
			c-0.9,0.3-1.9,0.3-2.8-0.1c-1-0.4-2.9-1.8-6-4.2L106.2,325.3L106.2,325.3z M85.3,338.2l25.2-31.2l13.3,10.7
			c3.3,2.7,5.5,4.9,6.6,6.7s1.5,3.8,1.2,5.9c-0.3,2.2-1.1,4.2-2.6,6c-1.9,2.3-4.1,3.7-6.8,4.1c-2.6,0.4-5.4-0.3-8.5-2.1
			c0.7,1.9,1.1,3.7,1.3,5.4c0.1,1.7-0.1,4.3-0.5,8l-1.1,9.2l-7.5-6.1l0.9-10.5c0.3-3.7,0.5-6.2,0.4-7.3c-0.1-1.1-0.4-2.1-0.8-2.8
			c-0.5-0.8-1.4-1.7-2.9-2.9l-1.3-1l-10.5,13L85.3,338.2L85.3,338.2z M153,341.9l3.4,1.2c3.1,1.1,5.2,1.9,6.2,2.5
			c1.3,0.8,2.3,1.8,2.9,3c0.6,1.2,0.9,2.7,0.9,4.4c0,1.8-0.5,4.1-1.5,7s-2.1,5.2-3.2,6.7c-1.1,1.5-2.2,2.5-3.3,3
			c-1.1,0.5-2.3,0.6-3.6,0.5c-1-0.1-2.6-0.5-4.8-1.2l-5.7-2L153,341.9L153,341.9z M147.6,332.9l14,4.8c3.2,1.1,5.5,2.1,7,3.2
			c2,1.4,3.5,3.2,4.5,5.5c1,2.2,1.5,4.7,1.5,7.4c0,2.7-0.6,5.9-1.8,9.4c-1.1,3.1-2.4,5.7-3.9,7.7c-1.9,2.4-4,4.2-6.4,5.3
			c-1.8,0.8-3.9,1.2-6.4,1.2c-1.9,0-4.2-0.5-7.1-1.5l-14.4-5L147.6,332.9L147.6,332.9z M253.2,361.3l6.2-2c3.5-1.1,5.9-1.7,7-1.7
			c1.2,0,2.2,0.4,3,1c0.8,0.6,1.4,1.5,1.8,2.6c0.4,1.4,0.4,2.5,0,3.6c-0.5,1-1.2,1.9-2.3,2.4c-0.7,0.4-2.4,1-5.2,2l-7.1,2.3
			L253.2,361.3L253.2,361.3z M248.3,346.1l4.4-1.4c3.6-1.2,5.8-1.9,6.6-2c1.3-0.3,2.4-0.1,3.3,0.4c0.9,0.5,1.5,1.4,1.9,2.6
			c0.4,1.2,0.4,2.4-0.1,3.4c-0.5,1-1.4,1.8-2.7,2.4c-0.7,0.3-2.5,1-5.6,2l-5,1.6L248.3,346.1L248.3,346.1z M238.5,342.2l15.3-5
			c3-1,5.3-1.6,6.9-1.8c1.6-0.2,3.1-0.1,4.5,0.3c1.4,0.4,2.8,1.2,4,2.2c1.2,1.1,2.1,2.4,2.6,4.1c0.6,1.8,0.6,3.6,0.2,5.4
			c-0.5,1.8-1.4,3.4-2.8,4.6c2.5-0.1,4.7,0.5,6.5,1.7c1.8,1.2,3,2.9,3.8,5.1c0.6,1.7,0.7,3.5,0.5,5.5c-0.3,1.9-1,3.6-2,5
			c-1.1,1.4-2.6,2.6-4.6,3.5c-1.2,0.5-4.3,1.6-9.2,3.3l-13,4.2L238.5,342.2L238.5,342.2z M258.7,79.6l19.3-35.2l26.1,14.3l-3.3,6
			l-19-10.4l-4.3,7.8l17.7,9.7l-3.2,5.9l-17.7-9.7l-5.3,9.6l19.7,10.8l-3.3,5.9L258.7,79.6L258.7,79.6z M121.1,83.2l6.7-4.3
			c1.6,2.2,3.4,3.4,5.2,3.9c1.9,0.4,3.9,0.1,6.1-1c2.3-1.2,3.8-2.6,4.5-4.2c0.7-1.6,0.7-3,0-4.3c-0.4-0.8-1.1-1.4-1.9-1.8
			c-0.8-0.3-1.9-0.4-3.4-0.2c-1,0.1-3.2,0.6-6.6,1.4c-4.4,1-7.7,1.2-9.9,0.6c-3.2-0.8-5.5-2.7-7-5.5c-0.9-1.8-1.3-3.8-1.1-5.9
			c0.2-2.1,1.1-4.1,2.6-5.9c1.5-1.8,3.7-3.4,6.4-4.8c4.5-2.3,8.4-3,11.6-2.2c3.3,0.8,5.8,2.8,7.6,6.1l-7.1,4c-1.3-1.7-2.6-2.7-4-2.9
			c-1.4-0.3-3.2,0.1-5.2,1.1c-2.1,1.1-3.5,2.3-4.3,3.8c-0.5,0.9-0.5,1.9,0,2.8c0.4,0.8,1.2,1.4,2.2,1.6c1.3,0.3,3.9,0,7.9-1
			s7-1.4,9.1-1.4c2.1,0,4.1,0.6,5.8,1.6c1.7,1.1,3.2,2.7,4.3,5c1,2.1,1.5,4.3,1.2,6.6c-0.2,2.4-1.2,4.5-2.8,6.4
			c-1.6,1.9-4,3.7-7.1,5.3c-4.5,2.3-8.5,3-12,2.2C126.7,89.3,123.7,87,121.1,83.2L121.1,83.2z M171.2,41.2l3.8-1
			c2.8-0.7,4.7-1.1,5.7-1.2c1.3-0.1,2.5,0.2,3.6,0.9c1.1,0.7,1.8,1.8,2.2,3.2c0.3,1.2,0.3,2.2-0.1,3.3c-0.4,1-1,1.9-2,2.5
			s-3,1.4-6.1,2.2l-4.3,1.1L171.2,41.2L171.2,41.2z M171.8,75.5l-10.1-38.9l12.6-3.3c4.8-1.2,7.9-1.8,9.5-1.8c2.4,0,4.6,0.8,6.6,2.3
			c2,1.6,3.4,3.9,4.2,7c0.6,2.4,0.7,4.5,0.3,6.4c-0.4,1.9-1.2,3.4-2.3,4.7c-1.1,1.3-2.3,2.2-3.6,2.9c-1.8,0.9-4.4,1.8-8,2.7
			l-5.1,1.3l3.8,14.7L171.8,75.5L171.8,75.5z M229.1,21l6.1,1.1l2.2,4.5l3.8-3.5l6.1,1.1l-7,7l-7-1.2L229.1,21L229.1,21z
			 M215.5,56.9l7.9,0.6c0,2.7,0.6,4.8,1.8,6.3c1.2,1.5,3,2.4,5.5,2.8c2.6,0.4,4.6,0.3,6.1-0.6c1.5-0.9,2.4-2,2.6-3.5
			c0.2-0.9,0-1.8-0.4-2.5c-0.4-0.8-1.3-1.5-2.6-2.2c-0.9-0.5-2.9-1.4-6.1-2.9c-4.1-1.8-6.9-3.7-8.3-5.5c-2.1-2.6-2.8-5.5-2.2-8.6
			c0.4-2,1.3-3.8,2.7-5.3c1.4-1.5,3.3-2.6,5.6-3.1c2.3-0.5,5-0.5,8,0c5,0.9,8.5,2.6,10.6,5.2c2.1,2.6,2.9,5.8,2.4,9.4l-8.1-1.1
			c0-2.1-0.5-3.7-1.4-4.8c-1-1.1-2.6-1.8-4.8-2.2c-2.3-0.4-4.2-0.3-5.7,0.5c-1,0.5-1.5,1.2-1.7,2.2c-0.2,0.9,0.1,1.8,0.8,2.6
			c0.9,1,3.1,2.3,6.9,3.9c3.7,1.6,6.4,3.1,8.1,4.4s2.9,2.9,3.7,4.8s0.9,4.1,0.5,6.6c-0.4,2.3-1.4,4.3-3,6c-1.6,1.8-3.6,2.9-6.1,3.5
			c-2.5,0.6-5.4,0.5-8.9-0.1c-5-0.9-8.6-2.7-10.9-5.5C216.2,65,215.2,61.4,215.5,56.9z"/>
	</g>
</g>
</svg>
