<svg id="Layer_1" data-name="Layer 1" xmlns="http://www.w3.org/2000/svg" viewBox="0 0 493.12088 493.12088"><defs><style>.cls-1{fill:#e64d3c;}.cls-2{fill:#e1493c;}.cls-3{fill:#fff;}.cls-4{fill:none;stroke:#fff;stroke-miterlimit:10;stroke-width:10px;}</style></defs><title>logo</title><circle class="cls-1" cx="246.56044" cy="246.56044" r="246.56044"/><path class="cls-2" d="M249.71429,3.90646v492.035c133.311-3.48857,246.56042-111.52392,246.56042-245.47454C496.27471,114.29531,385.88586,3.90646,249.71429,3.90646Z" transform="translate(-3.15385 -3)"/><path class="cls-3" d="M415.58035,155.677" transform="translate(-3.15385 -3)"/><path class="cls-4" d="M81.89847,158.35809,213.67873,341.81917" transform="translate(-3.15385 -3)"/><rect class="cls-3" x="186.20779" y="336.68832" width="120.7053" height="56.4342" rx="12"/><polygon class="cls-3" points="216.476 345.78 216.476 345.78 175.282 324.523 208.723 299.83 216.476 345.78"/><path class="cls-4" d="M440.67776,249.56044c0,105.46622-85.49726,190.96348-190.96347,190.96348S58.75081,355.02666,58.75081,249.56044,144.24807,58.597,249.71429,58.597,440.67776,144.09422,440.67776,249.56044ZM249.71429,440.52392V353.50259m31.33971-10.5L415.58035,155.677" transform="translate(-3.15385 -3)"/></svg>